<svg xmlns="http://www.w3.org/2000/svg" width="180" height="180"><line x1="0" y1="0" x2="0" y2="180" stroke="black" stroke-width="3"/><line x1="0" y1="0" x2="180" y2="0" stroke="black" stroke-width="3"/><line x1="20" y1="0" x2="20" y2="180" stroke="black" stroke-width="1"/><line x1="0" y1="20" x2="180" y2="20" stroke="black" stroke-width="1"/><line x1="40" y1="0" x2="40" y2="180" stroke="black" stroke-width="1"/><line x1="0" y1="40" x2="180" y2="40" stroke="black" stroke-width="1"/><line x1="60" y1="0" x2="60" y2="180" stroke="black" stroke-width="3"/><line x1="0" y1="60" x2="180" y2="60" stroke="black" stroke-width="3"/><line x1="80" y1="0" x2="80" y2="180" stroke="black" stroke-width="1"/><line x1="0" y1="80" x2="180" y2="80" stroke="black" stroke-width="1"/><line x1="100" y1="0" x2="100" y2="180" stroke="black" stroke-width="1"/><line x1="0" y1="100" x2="180" y2="100" stroke="black" stroke-width="1"/><line x1="120" y1="0" x2="120" y2="180" stroke="black" stroke-width="3"/><line x1="0" y1="120" x2="180" y2="120" stroke="black" stroke-width="3"/><line x1="140" y1="0" x2="140" y2="180" stroke="black" stroke-width="1"/><line x1="0" y1="140" x2="180" y2="140" stroke="black" stroke-width="1"/><line x1="160" y1="0" x2="160" y2="180" stroke="black" stroke-width="1"/><line x1="0" y1="160" x2="180" y2="160" stroke="black" stroke-width="1"/><line x1="180" y1="0" x2="180" y2="180" stroke="black" stroke-width="3"/><line x1="0" y1="180" x2="180" y2="180" stroke="black" stroke-width="3"/><circle cx="90" cy="90" r="8" fill="red"/></svg>